<svg width="151" height="111" viewBox="0 0 151 111" fill="none" xmlns="http://www.w3.org/2000/svg">
<path d="M145.978 51.6812C139.35 21.7156 129.375 5.72187 114.578 1.35312C111.468 0.44077 108.241 -0.0150292 105 -6.65762e-06C100.716 -6.65762e-06 96.9844 1.04374 93.0375 2.14999C88.2812 3.48437 82.8781 4.99999 75 4.99999C67.1219 4.99999 61.7156 3.48749 56.95 2.15312C53 1.04374 49.2719 -6.65762e-06 45 -6.65762e-06C41.6482 -0.0116288 38.3111 0.442719 35.0844 1.34999C20.3656 5.69999 10.3969 21.6875 3.67187 51.6625C-3.55938 83.9187 -9.29832e-06 104.284 13.6531 109.009C15.5246 109.669 17.4938 110.009 19.4781 110.016C28.8312 110.016 36.3312 102.225 41.4562 95.8469C47.2469 88.6281 54.025 84.9656 75 84.9656C93.7344 84.9656 101.487 87.5062 108.184 95.8469C112.394 101.091 116.372 104.759 120.341 107.069C125.619 110.137 130.894 110.819 136.016 109.059C144.084 106.306 148.709 99.0281 149.766 87.4219C150.569 78.5219 149.331 66.8312 145.978 51.6812ZM60 50H50V60C50 61.3261 49.4732 62.5978 48.5355 63.5355C47.5978 64.4732 46.3261 65 45 65C43.6739 65 42.4021 64.4732 41.4645 63.5355C40.5268 62.5978 40 61.3261 40 60V50H30C28.6739 50 27.4021 49.4732 26.4645 48.5355C25.5268 47.5978 25 46.3261 25 45C25 43.6739 25.5268 42.4021 26.4645 41.4645C27.4021 40.5268 28.6739 40 30 40H40V30C40 28.6739 40.5268 27.4021 41.4645 26.4645C42.4021 25.5268 43.6739 25 45 25C46.3261 25 47.5978 25.5268 48.5355 26.4645C49.4732 27.4021 50 28.6739 50 30V40H60C61.3261 40 62.5978 40.5268 63.5355 41.4645C64.4732 42.4021 65 43.6739 65 45C65 46.3261 64.4732 47.5978 63.5355 48.5355C62.5978 49.4732 61.3261 50 60 50ZM86.25 51.25C85.0139 51.25 83.8055 50.8834 82.7777 50.1967C81.7499 49.5099 80.9488 48.5338 80.4757 47.3918C80.0027 46.2497 79.8789 44.9931 80.1201 43.7807C80.3613 42.5683 80.9565 41.4546 81.8306 40.5806C82.7047 39.7065 83.8183 39.1112 85.0307 38.8701C86.2431 38.6289 87.4997 38.7527 88.6418 39.2257C89.7838 39.6988 90.7599 40.4999 91.4467 41.5277C92.1334 42.5555 92.5 43.7639 92.5 45C92.5 46.6576 91.8415 48.2473 90.6694 49.4194C89.4973 50.5915 87.9076 51.25 86.25 51.25ZM100 65C98.7632 65 97.5542 64.633 96.5261 63.9456C95.4979 63.2581 94.6969 62.2811 94.2243 61.1381C93.7517 59.9952 93.6288 58.7377 93.8713 57.5249C94.1137 56.3121 94.7105 55.1985 95.5861 54.325C96.4618 53.4516 97.5769 52.8576 98.7903 52.6182C100.004 52.3788 101.261 52.5048 102.403 52.9802C103.544 53.4557 104.519 54.2592 105.204 55.2891C105.889 56.3189 106.253 57.5288 106.25 58.7656C106.246 60.4205 105.586 62.0062 104.414 63.1749C103.242 64.3437 101.655 65 100 65ZM100 37.5C98.7639 37.5 97.5555 37.1334 96.5277 36.4467C95.4999 35.7599 94.6988 34.7838 94.2257 33.6418C93.7527 32.4997 93.6289 31.2431 93.8701 30.0307C94.1113 28.8183 94.7065 27.7047 95.5806 26.8306C96.4547 25.9565 97.5683 25.3612 98.7807 25.1201C99.9931 24.8789 101.25 25.0027 102.392 25.4757C103.534 25.9488 104.51 26.7499 105.197 27.7777C105.883 28.8055 106.25 30.0139 106.25 31.25C106.25 32.9076 105.592 34.4973 104.419 35.6694C103.247 36.8415 101.658 37.5 100 37.5ZM113.75 51.25C112.514 51.25 111.305 50.8834 110.278 50.1967C109.25 49.5099 108.449 48.5338 107.976 47.3918C107.503 46.2497 107.379 44.9931 107.62 43.7807C107.861 42.5683 108.456 41.4546 109.331 40.5806C110.205 39.7065 111.318 39.1112 112.531 38.8701C113.743 38.6289 115 38.7527 116.142 39.2257C117.284 39.6988 118.26 40.4999 118.947 41.5277C119.633 42.5555 120 43.7639 120 45C120 46.6576 119.342 48.2473 118.169 49.4194C116.997 50.5915 115.408 51.25 113.75 51.25Z" fill="#34DF6E"/>
</svg>
