<svg width="150" height="150" viewBox="0 0 150 150" fill="none" xmlns="http://www.w3.org/2000/svg">
<path d="M75 9.375C62.0206 9.375 49.3327 13.2238 38.5407 20.4348C27.7487 27.6458 19.3374 37.895 14.3704 49.8864C9.4034 61.8778 8.10381 75.0728 10.636 87.8028C13.1681 100.533 19.4183 112.226 28.5961 121.404C37.7739 130.582 49.4672 136.832 62.1972 139.364C74.9272 141.896 88.1222 140.597 100.114 135.63C112.105 130.663 122.354 122.251 129.565 111.459C136.776 100.667 140.625 87.9794 140.625 75C140.605 57.6013 133.685 40.9208 121.382 28.618C109.079 16.3153 92.3987 9.39485 75 9.375ZM75 131.25C60.0816 131.25 45.7742 125.324 35.2252 114.775C24.6763 104.226 18.75 89.9184 18.75 75C18.75 60.0816 24.6763 45.7742 35.2252 35.2252C45.7742 24.6763 60.0816 18.75 75 18.75V75L114.755 114.755C109.541 119.987 103.345 124.138 96.5229 126.968C89.7006 129.799 82.3863 131.254 75 131.25Z" fill="#369EFF"/>
</svg>
