<svg width="136" height="140" viewBox="0 0 136 140" fill="none" xmlns="http://www.w3.org/2000/svg">
<path d="M65.2988 0.465625V30.1199C67.6391 30.1979 69.9872 30.1981 72.3301 30.1199V0.465332L65.2988 0.465625ZM44.1597 32.8111V41.8384H93.4701V32.8111C77.1356 36.5406 60.3342 36.5037 44.1597 32.8111ZM0.132312 43.0835L2.86952 54.0974L41.5962 56.4684L44.3518 56.633L44.16 59.3887C43.4 70.544 45.7001 82.4374 51.6491 92.3301L53.883 49.4189L0.132312 43.0835ZM135.831 43.0835L83.7292 49.2271L85.8348 89.6107C90.6561 80.3017 92.4957 69.5415 91.804 59.389L91.6209 56.6336L94.3675 56.4687L133.094 54.0977L135.832 43.0835H135.831ZM59.4767 47.3134L56.3545 107.262V120.208L69.355 139.699L81.9614 120.556L78.1528 47.3134H71.5522V120.83H66.0772V47.3131H59.4767V47.3134ZM4.18729 59.6641C5.21854 62.9553 6.54364 66.41 8.09696 69.8992L38.7122 67.3908C38.6074 65.5189 38.58 63.6435 38.6302 61.7693L4.18729 59.6641ZM131.776 59.6641L97.3335 61.7693C97.3839 63.6306 97.356 65.51 97.2515 67.3908L127.867 69.8992C129.419 66.41 130.745 62.9553 131.775 59.6638L131.776 59.6641ZM39.2433 72.8477L10.6144 75.1914C12.2213 78.3686 13.9593 81.4777 15.824 84.5107L40.4518 79.1553C39.9437 77.0743 39.5406 74.9691 39.2433 72.8477ZM96.72 72.8477C96.4262 74.9689 96.026 77.0741 95.5212 79.1553L120.139 84.5107C122.004 81.4779 123.742 78.3688 125.349 75.1914L96.72 72.8477ZM41.9814 84.4287L19.001 89.4276C20.9621 92.2987 23.0058 95.0087 25.0801 97.4749L44.1049 89.7575C43.3086 88.0178 42.5997 86.2394 41.9809 84.429L41.9814 84.4287ZM93.9834 84.4287C93.3643 86.239 92.6554 88.0174 91.8594 89.7572L110.884 97.4749C112.958 95.0096 115.002 92.2993 116.963 89.4279L93.9831 84.429L93.9834 84.4287Z" fill="#FFB800"/>
</svg>
