<svg width="140" height="140" viewBox="0 0 140 140" fill="none" xmlns="http://www.w3.org/2000/svg">
<g clip-path="url(#clip0_129_21)">
<path d="M91.875 21.875C91.875 27.6766 89.5703 33.2406 85.468 37.343C81.3656 41.4453 75.8016 43.75 70 43.75C64.1984 43.75 58.6344 41.4453 54.532 37.343C50.4297 33.2406 48.125 27.6766 48.125 21.875C48.125 16.0734 50.4297 10.5094 54.532 6.40704C58.6344 2.30468 64.1984 0 70 0C75.8016 0 81.3656 2.30468 85.468 6.40704C89.5703 10.5094 91.875 16.0734 91.875 21.875ZM135.625 26.25C135.625 30.8913 133.781 35.3425 130.499 38.6244C127.217 41.9063 122.766 43.75 118.125 43.75C113.484 43.75 109.033 41.9063 105.751 38.6244C102.469 35.3425 100.625 30.8913 100.625 26.25C100.625 21.6087 102.469 17.1575 105.751 13.8756C109.033 10.5937 113.484 8.75 118.125 8.75C122.766 8.75 127.217 10.5937 130.499 13.8756C133.781 17.1575 135.625 21.6087 135.625 26.25ZM21.875 43.75C26.5163 43.75 30.9675 41.9063 34.2494 38.6244C37.5313 35.3425 39.375 30.8913 39.375 26.25C39.375 21.6087 37.5313 17.1575 34.2494 13.8756C30.9675 10.5937 26.5163 8.75 21.875 8.75C17.2337 8.75 12.7825 10.5937 9.50063 13.8756C6.21874 17.1575 4.375 21.6087 4.375 26.25C4.375 30.8913 6.21874 35.3425 9.50063 38.6244C12.7825 41.9063 17.2337 43.75 21.875 43.75ZM35 63.4375C35 57.4 39.9 52.5 45.9375 52.5H94.0625C100.1 52.5 105 57.4 105 63.4375V105C105 114.283 101.313 123.185 94.7487 129.749C88.185 136.312 79.2826 140 70 140C60.7174 140 51.815 136.312 45.2513 129.749C38.6875 123.185 35 114.283 35 105V63.4375ZM26.25 63.4375C26.25 59.3862 27.475 55.6325 29.5663 52.5H10.9375C4.9 52.5 1.56083e-07 57.4 1.56083e-07 63.4375V96.25C-0.000408326 99.996 0.800963 103.699 2.35026 107.109C3.89957 110.52 6.16091 113.56 8.98236 116.024C11.8038 118.488 15.12 120.32 18.7081 121.396C22.2962 122.472 26.0731 122.768 29.785 122.264C27.4439 116.81 26.241 110.935 26.25 105V63.4375ZM113.75 105C113.75 111.125 112.49 116.97 110.215 122.264C113.927 122.768 117.704 122.472 121.292 121.396C124.88 120.32 128.196 118.488 131.018 116.024C133.839 113.56 136.1 110.52 137.65 107.109C139.199 103.699 140 99.996 140 96.25V63.4375C140 57.4 135.1 52.5 129.062 52.5H110.434C112.534 55.6325 113.75 59.3862 113.75 63.4375V105Z" fill="#A347FF"/>
</g>
<defs>
<clipPath id="clip0_129_21">
<rect width="140" height="140" fill="white"/>
</clipPath>
</defs>
</svg>
